<svg xmlns="http://www.w3.org/2000/svg" viewBox="0 0 1200 900" role="img" aria-labelledby="title desc">
  <title id="title">Desert highway illustration</title>
  <desc id="desc">Long road crossing a dry desert landscape with mesas and cactus silhouettes.</desc>
  <defs>
    <linearGradient id="sky" x1="0" x2="0" y1="0" y2="1">
      <stop offset="0%" stop-color="#ffd7a8" />
      <stop offset="100%" stop-color="#fff1db" />
    </linearGradient>
    <linearGradient id="road" x1="0" x2="0" y1="0" y2="1">
      <stop offset="0%" stop-color="#64585b" />
      <stop offset="100%" stop-color="#342d33" />
    </linearGradient>
  </defs>
  <rect width="1200" height="900" fill="url(#sky)" />
  <circle cx="200" cy="180" r="78" fill="#ffefb3" />
  <path d="M0 500 C200 450 320 470 520 430 C720 390 880 420 1200 350 L1200 610 L0 610 Z" fill="#d98e55" />
  <path d="M0 590 C220 560 360 580 530 540 C750 485 950 520 1200 470 L1200 900 L0 900 Z" fill="#bf7440" />
  <path d="M470 900 L585 515 L615 515 L730 900 Z" fill="url(#road)" />
  <path d="M594 545 L606 545 L640 900 L560 900 Z" fill="#f7d27f" />
  <path d="M104 566 L164 450 L244 566 Z" fill="#9b5b3d" />
  <rect x="148" y="566" width="50" height="64" fill="#9b5b3d" />
  <path d="M888 548 L968 408 L1068 548 Z" fill="#8b5037" />
  <rect x="942" y="548" width="56" height="78" fill="#8b5037" />
  <g fill="#2d5945">
    <path d="M236 690 C236 628 266 590 266 590 C296 590 326 628 326 690 Z" />
    <rect x="274" y="625" width="16" height="110" />
    <rect x="236" y="645" width="92" height="14" rx="7" />
    <path d="M930 732 C930 668 960 625 960 625 C992 625 1020 668 1020 732 Z" />
    <rect x="968" y="660" width="16" height="108" />
    <rect x="930" y="682" width="92" height="14" rx="7" />
  </g>
  <path d="M0 790 C260 742 500 758 700 790 C930 828 1040 830 1200 798" fill="none" stroke="#f6b07a" stroke-width="12" opacity="0.8" />
</svg>
